<?xml version="1.0" encoding="utf-8"?>
<!-- Generator: Adobe Illustrator 24.1.1, SVG Export Plug-In . SVG Version: 6.00 Build 0)  -->
<svg version="1.1" id="Layer_1" xmlns="http://www.w3.org/2000/svg" xmlns:xlink="http://www.w3.org/1999/xlink" x="0px" y="0px"
	 viewBox="0 0 512 512" style="enable-background:new 0 0 512 512;" xml:space="preserve">
<g>
	<path fill="#117ACA" d="M183.2,511.4c-2.6,0-5-0.4-7-1.4c-2.1-0.9-4.1-2.2-6-3.7c-1.8-1.5-3.2-3.3-3.9-5.6c-0.8-2.3-1.3-4.8-1.7-7.3l0.6-126.3H499
		L347.3,511.4H182.6H183.2z M512,328.8c-0.3,2.7-0.9,5-1.7,7.1c-0.8,2-2.1,3.9-4,5.6c-1.8,1.8-3.8,3-5.9,4c-2,0.9-4.4,1.4-7,1.4
		H367.1l-0.6-334.4l144.9,152.3v164.1L512,328.8z M328.7,0.6c2.3,0,4.6,0.5,7.1,1.4c2.4,0.9,4.3,2.2,5.6,3.7
		c1.3,1.5,2.6,3.3,3.7,5.7c1.2,2.3,1.5,4.7,1.2,7.3l0.5,126.3H11.8L164.7,0.6H328.7z M0.6,183.2c-0.4-2.6,0-4.9,1.1-7
		c1.2-2.1,2.5-4,4-5.7c1.5-1.7,3.3-3,5.6-3.9c2.3-1,4.6-1.4,6.8-1.4h126.8l-0.6,334.3L0.6,347.3L0,183.2L0.6,183.2z"/>
</g>
</svg>
